<?xml version="1.0" encoding="utf-8"?><!-- Uploaded to: SVG Repo, www.svgrepo.com, Generator: SVG Repo Mixer Tools -->
<svg fill="#000000" width="800px" height="800px" viewBox="0 0 24 24" id="usb-left" data-name="Flat Line" xmlns="http://www.w3.org/2000/svg" class="icon flat-line"><path id="secondary" d="M21,12h0a5,5,0,0,0-5-5H8A1,1,0,0,0,7,8v8a1,1,0,0,0,1,1h8A5,5,0,0,0,21,12Z" style="fill: rgb(44, 169, 188); stroke-width: 2;"></path><polyline id="primary" points="12 12 14 13 14 11 16 12" style="fill: none; stroke: rgb(0, 0, 0); stroke-linecap: round; stroke-linejoin: round; stroke-width: 2;"></polyline><path id="primary-2" data-name="primary" d="M3,15V9H7v6Zm18-3h0a5,5,0,0,0-5-5H8A1,1,0,0,0,7,8v8a1,1,0,0,0,1,1h8A5,5,0,0,0,21,12Z" style="fill: none; stroke: rgb(0, 0, 0); stroke-linecap: round; stroke-linejoin: round; stroke-width: 2;"></path></svg>