<?xml version="1.0" encoding="utf-8"?>
<!-- Uploaded to: SVG Repo, www.svgrepo.com, Generator: SVG Repo Mixer Tools -->
<svg width="800px" height="800px" viewBox="0 0 1024 1024" class="icon"  version="1.1" xmlns="http://www.w3.org/2000/svg"><path d="M361.344 87.488h298.624v262.656H361.344z" fill="" /><path d="M383.808 109.888h253.824v217.856H383.808z" fill="#CCCCCC" /><path d="M721.856 627.008v-48h44.8v-80h-44.8V432h44.8V327.744a22.464 22.464 0 0 0-22.4-22.4h-467.2a22.528 22.528 0 0 0-22.4 22.4v588.544c0 12.288 10.112 22.4 22.4 22.4h467.2c12.288 0 22.4-10.048 22.4-22.4v-289.28h-44.8z" fill="" /><path d="M406.208 132.288h209.024v173.056H406.208z" fill="#CCCCCC" /><path d="M412.992 164.096v78.656h78.656V164.096H412.992z m56.32 56.32h-33.92v-33.856h33.856v33.856zM529.984 164.096v78.656H608.64V164.096H529.984z m56.256 56.32h-33.856v-33.856h33.856v33.856z" fill="" /><path d="M299.52 350.144h422.4v543.744h-422.4z" fill="#00BD00" /><path d="M299.52 833.536h422.4v25.6h-422.4z" fill="#258DC1" /><path d="M355.392 795.648a16 16 0 0 1-32 0V394.304a16 16 0 0 1 32 0v401.344z" fill="#FFFFFF" /><path d="M744.256 430.912m-22.4 0a22.4 22.4 0 1 0 44.8 0 22.4 22.4 0 1 0-44.8 0Z" fill="" /><path d="M744.256 497.92m-22.4 0a22.4 22.4 0 1 0 44.8 0 22.4 22.4 0 1 0-44.8 0Z" fill="" /><path d="M744.256 578.944m-22.4 0a22.4 22.4 0 1 0 44.8 0 22.4 22.4 0 1 0-44.8 0Z" fill="" /><path d="M744.256 627.968m-22.4 0a22.4 22.4 0 1 0 44.8 0 22.4 22.4 0 1 0-44.8 0Z" fill="" /></svg>