<?xml version="1.0" encoding="iso-8859-1"?>
<!-- Uploaded to: SVG Repo, www.svgrepo.com, Generator: SVG Repo Mixer Tools -->
<svg fill="#000000" height="800px" width="800px" version="1.1" id="Layer_1" xmlns="http://www.w3.org/2000/svg" xmlns:xlink="http://www.w3.org/1999/xlink" 
	 viewBox="0 0 508.025 508.025" xml:space="preserve">
<g>
	<g>
		<path d="M435.007,163.725h-65.5c-7.8,0-14.1,6.3-14.1,14.1v65.5c0,7.8,6.3,14.1,14.1,14.1h18.6v32.6l-119.8,71.3v-270.1h48.9h0.1
			c18.6-3.4,12-22.7,8.7-25.2l-61.8-61.9c-5.5-5.5-14.5-5.5-20,0l-63,63c-4,4-9.5,22.6,10,24.1h48.8v213l-119.8-71.3v-37.5
			c18.5-6.1,31.8-23.5,31.8-44c0-25.6-20.8-46.4-46.4-46.4c-25.6,0-46.4,20.8-46.4,46.4c0,20.8,13.8,38.5,32.7,44.4v45.2
			c0,5,2.6,9.6,6.9,12.1l141.1,84v80.3c-18.7,6-32.3,23.5-32.3,44.2c0,25.6,20.8,46.4,46.4,46.4c25.6,0,46.4-20.8,46.4-46.4
			c0-20.7-13.6-38.2-32.3-44.2v-23.1l141.1-84c4.3-2.5,6.9-7.2,6.9-12.1v-40.7h18.6c7.8,0,14.1-6.3,14.1-14.1v-65.5
			C449.107,170.125,442.807,163.725,435.007,163.725z M105.707,169.625c-10,0-18.2-8.1-18.2-18.2c0-10,8.1-18.2,18.2-18.2
			s18.2,8.1,18.2,18.2C123.907,161.425,115.707,169.625,105.707,169.625z M272.407,461.625c0,10-8.1,18.2-18.2,18.2
			c-10,0-18.2-8.1-18.2-18.2c0-10,8.1-18.2,18.2-18.2C264.207,443.425,272.407,451.625,272.407,461.625z M225.307,63.025l28.9-28.9
			l28.9,28.9H225.307z M420.907,229.225h-37.2v-37.2h37.2V229.225z"/>
	</g>
</g>
</svg>