<?xml version="1.0" encoding="iso-8859-1"?>
<!-- Uploaded to: SVG Repo, www.svgrepo.com, Generator: SVG Repo Mixer Tools -->
<svg fill="#000000" height="800px" width="800px" version="1.1" id="Layer_1" xmlns="http://www.w3.org/2000/svg" xmlns:xlink="http://www.w3.org/1999/xlink" 
	 viewBox="0 0 512 512" xml:space="preserve">
<g transform="translate(1 1)">
	<g>
		<g>
			<path d="M508.324,121.027L388.857,1.56c-3.413-3.413-8.533-3.413-11.947,0l-91.649,89.258l-18.431-18.431
				c-3.413-3.413-8.533-3.413-11.947,0L20.217,307.053c-23.893,23.893-28.16,63.147-9.387,92.16l11.947,18.773
				c17.92,27.307,40.107,50.347,67.413,67.413l23.04,14.507c11.093,7.68,23.893,11.093,36.693,11.093
				c17.92,0,34.987-6.827,47.787-19.627l238.08-238.08c3.413-3.413,3.413-8.533,0-11.947l-17.92-17.92l90.453-90.453
				C511.737,129.56,511.737,124.44,508.324,121.027z M186.617,479.427c-17.067,17.067-43.52,19.627-63.147,6.827l-23.893-15.36
				c-25.6-16.213-46.08-37.547-62.293-62.293l-11.947-18.773C10.831,367.64,14.244,337.773,33.017,319l227.84-227.84l16.785,16.603
				c0.324,0.448,0.701,0.883,1.135,1.317L399.951,229.4c0.81,0.81,1.623,1.422,2.525,1.847l16.248,16.073L186.617,479.427z
				 M405.924,211.48L297.551,103.107l85.333-83.627L490.404,127L405.924,211.48z"/>
			<path d="M376.057,49.347L352.164,73.24c-3.413,3.413-3.413,8.533,0,11.947l23.893,23.893c1.707,1.707,3.413,2.56,5.973,2.56
				c1.707,0,4.267-0.853,5.973-2.56l23.893-23.893c3.413-3.413,3.413-8.533,0-11.947l-23.893-23.893
				C384.591,45.933,379.471,45.933,376.057,49.347z M393.124,78.36l-11.947,11.947L369.231,78.36l11.947-11.947L393.124,78.36z"/>
			<path d="M399.951,132.973l23.893,23.893c1.707,1.707,3.413,2.56,5.973,2.56s4.267-0.853,5.973-2.56l23.893-23.893
				c3.413-3.413,3.413-8.533,0-11.947l-23.893-23.893c-3.413-3.413-8.533-3.413-11.947,0l-23.893,23.893
				C396.537,124.44,396.537,129.56,399.951,132.973z M429.817,115.053L441.764,127l-11.947,11.947L417.871,127L429.817,115.053z"/>
			<path d="M290.724,289.987c-3.413-3.413-8.533-3.413-11.947,0l-23.893,23.893c-3.413,3.413-3.413,8.533,0,11.947l5.869,6.078
				l-13.549,13.549l-49.625-22.055l74.371-74.371v14.507c0,5.12,3.413,8.533,8.533,8.533s8.533-3.413,8.533-8.533V229.4
				c0-5.12-3.413-8.533-8.533-8.533h-0.852c-0.001,0-0.002,0-0.002,0h-41.812c-5.12,0-8.533,3.413-8.533,8.533
				s3.413,8.533,8.533,8.533h21.333l-80.263,80.263c-1.861,0.787-3.416,2.216-4.217,4.217l-7.332,7.332l-22.535-49.999
				l17.261-17.261c2.354,0.68,4.863,1.047,7.486,1.047c14.507,0,25.6-11.093,25.6-25.6s-11.093-25.6-25.6-25.6
				c-14.507,0-25.6,11.093-25.6,25.6c0,5.446,1.564,10.411,4.285,14.489l-19.645,19.645c-2.56,2.56-3.413,5.973-1.707,9.387
				l27.488,61.259l-10.642,10.642c-4.979-2.848-10.729-4.487-16.846-4.487c-18.773,0-34.133,15.36-34.133,34.133
				c0,18.773,15.36,34.133,34.133,34.133c18.773,0,34.133-15.36,34.133-34.133c0-6.56-1.881-12.701-5.122-17.918l28.933-28.933
				l60.67,27.224c0.853,0.853,2.56,0.853,3.413,0.853c2.56,0,4.267-0.853,5.973-1.707l17.714-18.347l6.179,6.4
				c1.707,1.707,3.413,2.56,5.973,2.56s5.12-0.853,5.973-3.413l23.893-23.893c3.413-3.413,3.413-8.533,0-11.947L290.724,289.987z
				 M169.551,229.4c5.12,0,8.533,3.413,8.533,8.533s-3.413,8.533-8.533,8.533s-8.533-3.413-8.533-8.533S164.431,229.4,169.551,229.4
				z M126.884,400.067c-9.387,0-17.067-7.68-17.067-17.067s7.68-17.067,17.067-17.067s17.067,7.68,17.067,17.067
				S136.271,400.067,126.884,400.067z M284.751,331.8l-11.947-11.947l11.947-11.947l11.947,11.947L284.751,331.8z"/>
		</g>
	</g>
</g>
</svg>