<?xml version="1.0" encoding="utf-8"?>
<!-- Uploaded to: SVG Repo, www.svgrepo.com, Generator: SVG Repo Mixer Tools -->
<svg width="800px" height="800px" viewBox="0 0 1024 1024" class="icon"  version="1.1" xmlns="http://www.w3.org/2000/svg"><path d="M656 308c0 4-3.2 6.4-6.4 6.4H374.4c-4 0-6.4-3.2-6.4-6.4V97.6C368 61.6 396.8 32 433.6 32h157.6c36 0 65.6 29.6 65.6 65.6v210.4z" fill="#C7C7C4" /><path d="M649.6 322.4H374.4c-8 0-14.4-6.4-14.4-14.4V97.6C360 56.8 392.8 24 433.6 24h157.6c40.8 0 73.6 32.8 73.6 73.6v209.6c-0.8 8.8-7.2 15.2-15.2 15.2z m-273.6-16h272V97.6c0-32-25.6-57.6-57.6-57.6H433.6c-32 0-57.6 25.6-57.6 57.6v208.8z" fill="#6A576D" /><path d="M368 275.2v30.4c0 4 4.8 8.8 8 8.8h272c4 0 8-5.6 8-8.8v-30.4H368z" fill="#0D1014" /><path d="M510.4 992h2.4c-110.4 0-197.6-89.6-197.6-200V300.8h393.6V792c0 110.4-88 200-198.4 200z" fill="#F1ED7B" /><path d="M519.2 385.6l-44 72.8h87.2zM564.8 497.6h78.4v65.6h-78.4z" fill="#6A576D" /><path d="M424.8 588.8m-43.2 0a43.2 43.2 0 1 0 86.4 0 43.2 43.2 0 1 0-86.4 0Z" fill="#6A576D" /><path d="M519.2 803.2m-43.2 0a43.2 43.2 0 1 0 86.4 0 43.2 43.2 0 1 0-86.4 0Z" fill="#6A576D" /><path d="M341.6 792V300.8h-26.4V792c0 110.4 88 200 198.4 200 4.8 0 9.6 0 13.6-0.8-104-6.4-185.6-92.8-185.6-199.2z" fill="#FFFFFF" /><path d="M682.4 300.8V792c0 106.4-80.8 192.8-185.6 199.2 4 0 8 0.8 12 0.8 110.4 0 199.2-89.6 199.2-200V300.8h-25.6z" fill="#0D1014" /><path d="M470.4 208.8h-47.2c-1.6 0-2.4-0.8-2.4-2.4v-34.4c0-1.6 0.8-2.4 2.4-2.4h47.2c1.6 0 2.4 0.8 2.4 2.4v34.4c0 1.6-1.6 2.4-2.4 2.4zM601.6 208.8h-47.2c-1.6 0-2.4-0.8-2.4-2.4v-34.4c0-1.6 0.8-2.4 2.4-2.4h47.2c1.6 0 2.4 0.8 2.4 2.4v34.4c0 1.6-1.6 2.4-2.4 2.4z" fill="#4D4F50" /><path d="M470.4 216.8h-47.2c-5.6 0-10.4-4.8-10.4-10.4v-34.4c0-5.6 4.8-10.4 10.4-10.4h47.2c5.6 0 10.4 4.8 10.4 10.4v34.4c0 6.4-4.8 10.4-10.4 10.4z m-42.4-16h36.8v-23.2h-36.8v23.2zM601.6 216.8h-47.2c-5.6 0-10.4-4.8-10.4-10.4v-34.4c0-5.6 4.8-10.4 10.4-10.4h47.2c5.6 0 10.4 4.8 10.4 10.4v34.4c0 6.4-4.8 10.4-10.4 10.4z m-42.4-16h36.8v-23.2h-36.8v23.2zM512.8 1000h-2.4-0.8c-113.6-1.6-202.4-92.8-202.4-208V300.8c0-4.8 3.2-8 8-8h393.6c4.8 0 8 3.2 8 8V792c0 113.6-91.2 206.4-204 208zM323.2 308.8V792c0 107.2 82.4 191.2 188.8 192 104-0.8 189.6-86.4 189.6-192V308.8H323.2z" fill="#6A576D" /><path d="M519.2 811.2c-4.8 0-8-3.2-8-8V422.4c0-4.8 3.2-8 8-8s8 3.2 8 8v381.6c0 4-4 7.2-8 7.2z" fill="#6A576D" /><path d="M519.2 682.4c-2.4 0-5.6-1.6-7.2-4-2.4-4-0.8-8.8 2.4-11.2l53.6-32c16.8-10.4 28-29.6 28-49.6v-55.2c0-4.8 3.2-8 8-8s8 3.2 8 8v55.2c0 25.6-13.6 49.6-35.2 63.2l-53.6 32c-1.6 0.8-3.2 1.6-4 1.6zM519.2 746.4c-1.6 0-3.2 0-4-1.6l-63.2-40a73.12 73.12 0 0 1-34.4-62.4v-54.4c0-4.8 3.2-8 8-8s8 3.2 8 8v54.4c0 20 10.4 38.4 27.2 48.8l63.2 40c4 2.4 4.8 7.2 2.4 11.2-2.4 3.2-4.8 4-7.2 4z" fill="#6A576D" /></svg>