<?xml version="1.0" encoding="iso-8859-1"?>

<!DOCTYPE svg PUBLIC "-//W3C//DTD SVG 1.1//EN" "http://www.w3.org/Graphics/SVG/1.1/DTD/svg11.dtd">
<!-- Uploaded to: SVG Repo, www.svgrepo.com, Generator: SVG Repo Mixer Tools -->
<svg version="1.1" id="_x36_" xmlns="http://www.w3.org/2000/svg" xmlns:xlink="http://www.w3.org/1999/xlink" 
	 viewBox="0 0 512 512"  xml:space="preserve">
<g>
	<g>
		<path style="fill:#F2F2F2;" d="M280.227,7.357v387.398c0,4.034-3.243,7.355-7.276,7.355H31.084c-4.034,0-7.276-3.321-7.276-7.355
			V7.357C23.807,3.323,27.05,0,31.084,0h241.867C276.984,0,280.227,3.323,280.227,7.357z"/>
		<path style="opacity:0.1;fill:#040000;" d="M280.227,93.726v387.477c0,4.034-3.243,7.278-7.276,7.278H31.084
			c-4.034,0-7.276-3.244-7.276-7.278V93.726c0-4.034,3.243-7.276,7.276-7.276h241.867C276.984,86.45,280.227,89.692,280.227,93.726z
			"/>
		<g>
			<rect x="71.255" y="34.197" style="fill:#BCBCBC;" width="48.377" height="23.266"/>
			<rect x="184.401" y="34.197" style="fill:#BCBCBC;" width="48.377" height="23.266"/>
		</g>
		<path style="fill:#AA9B57;" d="M304.034,124.02v373.874c0,0.948-0.079,1.819-0.316,2.688c0,0.158-0.079,0.317-0.079,0.475
			c-0.158,0.554-0.317,1.108-0.474,1.582c-0.158,0.554-0.396,1.029-0.633,1.504c-0.238,0.473-0.554,0.948-0.791,1.423
			c-0.633,0.871-1.345,1.74-2.056,2.45c-1.187,1.188-2.531,2.058-4.034,2.769c-1.74,0.792-3.638,1.186-5.695,1.186H14.078
			C6.327,511.97,0,505.723,0,497.893V124.02c0-7.751,6.327-14.079,14.078-14.079h275.877c0.87,0,1.74,0.079,2.531,0.317
			c0.158,0,0.317,0,0.475,0.079c0.554,0.079,1.107,0.236,1.661,0.475c0.237,0.077,0.395,0.158,0.633,0.236
			c0.554,0.238,1.028,0.475,1.581,0.792c0.87,0.475,1.661,1.027,2.373,1.661c0.712,0.633,1.345,1.344,1.977,2.136
			c0.395,0.554,0.791,1.186,1.107,1.819c0.633,1.027,1.028,2.136,1.345,3.321c0,0.158,0.079,0.238,0.079,0.396
			C303.955,122.121,304.034,123.069,304.034,124.02z"/>
		<path style="opacity:0.1;fill:#040000;" d="M304.02,124.004v373.912c0,7.771-6.313,14.084-14.084,14.084H14.097
			c-7.786,0-14.083-6.313-14.083-14.084v-1.427h272.861c7.771,0,14.084-6.313,14.084-14.084V109.921h2.978
			C297.707,109.921,304.02,116.233,304.02,124.004z"/>
		<g>
			<path style="fill:#DCDBDB;" d="M193.114,225.799c-1.65,0-3,1.35-3,3v33.36c0,1.65,1.35,3,3,3h9.565c1.65,0,3,1.35,3,3v16.581
				c0,1.65-1.015,3.889-2.257,4.977l-41.468,36.328c-1.241,1.087-2.257,0.627-2.257-1.023V222.657c0-1.65,1.35-3,3-3h21.449
				c1.65,0,2.325-1.169,1.5-2.598l-30.478-52.79c-0.825-1.429-2.175-1.429-3,0l-30.478,52.79c-0.825,1.429-0.15,2.598,1.5,2.598
				h21.449c1.65,0,3,1.35,3,3v131.918c0,1.65-1.015,2.11-2.257,1.023l-41.002-35.92c-1.241-1.087-2.257-3.327-2.257-4.977v-14.505
				c0-1.65,1.132-3.736,2.515-4.635c0,0,14.686-9.546,14.686-20.121c0-12.362-10.021-22.383-22.383-22.383
				c-12.362,0-22.383,10.021-22.383,22.383c0,10.575,14.685,20.121,14.685,20.121c1.383,0.899,2.515,2.985,2.515,4.635v19.204
				c0,1.65,1.015,3.89,2.257,4.977l51.367,45c1.241,1.087,2.257,3.015,2.257,4.285c0,1.269-1.151,3.013-2.558,3.875
				c0,0-22.689,13.905-22.689,29.115c0,17.273,14.003,31.276,31.276,31.276c17.273,0,31.276-14.003,31.276-31.276
				c0-15.21-22.689-29.115-22.689-29.115c-1.407-0.862-2.558-2.918-2.558-4.568v-28.17c0-1.65,1.015-3.89,2.257-4.977l51.833-45.408
				c1.241-1.087,2.257-3.327,2.257-4.977v-21.28c0-1.65,1.35-3,3-3h7.43c1.65,0,3-1.35,3-3v-33.36c0-1.65-1.35-3-3-3H193.114z"/>
		</g>
	</g>
	<path style="opacity:0.1;fill:#040000;" d="M304.034,124.02v373.874c0,0.948-0.079,1.819-0.316,2.688
		c0,0.158-0.079,0.317-0.079,0.475c-0.158,0.554-0.317,1.108-0.474,1.582c-0.158,0.554-0.396,1.029-0.633,1.504
		c-0.238,0.473-0.554,0.948-0.791,1.423c-0.633,0.871-1.345,1.74-2.056,2.45c-1.187,1.188-2.531,2.058-4.034,2.769
		c-1.74,0.792-3.638,1.186-5.695,1.186H152.017V0h120.934c4.034,0,7.276,3.323,7.276,7.357v102.584h9.728
		c0.87,0,1.74,0.079,2.531,0.317c0.158,0,0.317,0,0.475,0.079c0.554,0.079,1.107,0.236,1.661,0.475
		c0.237,0.077,0.395,0.158,0.633,0.236c0.554,0.238,1.028,0.475,1.581,0.792c0.87,0.475,1.661,1.027,2.373,1.661
		c0.712,0.633,1.345,1.344,1.977,2.136c0.395,0.554,0.791,1.186,1.107,1.819c0.633,1.027,1.028,2.136,1.345,3.321
		c0,0.158,0.079,0.238,0.079,0.396C303.955,122.121,304.034,123.069,304.034,124.02z"/>
</g>
</svg>